<?xml version="1.0" encoding="UTF-8"?>
<svg xmlns="http://www.w3.org/2000/svg" data-name="Ebene 1" viewBox="0 0 70.87 70.87" width="2400" height="2400"><path fill="#351f65" d="M35.38 14.26a24 24 0 0 1 9 1.67 23.7 23.7 0 0 1 7.3 4.56 21.76 21.76 0 0 1 4.93 6.76 19.55 19.55 0 0 1 1.79 8.32V57h-23a24.11 24.11 0 0 1-8.94-1.66 23.48 23.48 0 0 1-7.39-4.61 21.54 21.54 0 0 1-5-6.85 20.14 20.14 0 0 1 0-16.6 21.18 21.18 0 0 1 5-6.76 24.28 24.28 0 0 1 16.33-6.23m13.85 34.22V35.57a11.72 11.72 0 0 0-1.08-5 12.79 12.79 0 0 0-3-4.09 13.87 13.87 0 0 0-4.42-2.76 14.35 14.35 0 0 0-5.39-1 14.76 14.76 0 0 0-5.44 1 13.57 13.57 0 0 0-4.47 2.76 12.79 12.79 0 0 0-3 4.09 11.72 11.72 0 0 0-1.08 5 12 12 0 0 0 1.08 5 12.67 12.67 0 0 0 3 4.14 13.91 13.91 0 0 0 4.47 2.76 14.76 14.76 0 0 0 5.44 1z"/></svg>
