<?xml version="1.0" encoding="UTF-8"?>
<svg xmlns="http://www.w3.org/2000/svg" data-name="Ebene 1" viewBox="0 0 249.45 70.87" width="2400" height="684.33734939759"><path fill="#3c1e6c" d="M29.48 10.57a16.66 16.66 0 0 1 6.28 1.17 16.34 16.34 0 0 1 5.09 3.18 15.22 15.22 0 0 1 3.44 4.71 13.69 13.69 0 0 1 1.25 5.81v14.94H29.48a16.9 16.9 0 0 1-6.23-1.16A16.48 16.48 0 0 1 18.09 36a15 15 0 0 1-3.48-4.78 14.06 14.06 0 0 1 0-11.59 14.72 14.72 0 0 1 3.48-4.71 17 17 0 0 1 11.39-4.35m9.68 23.9v-9a8.18 8.18 0 0 0-.75-3.47 9 9 0 0 0-2.08-2.86 9.83 9.83 0 0 0-3.08-1.92 10 10 0 0 0-3.77-.7 10.24 10.24 0 0 0-3.79.7 9.69 9.69 0 0 0-3.12 1.92A8.88 8.88 0 0 0 20.49 22a8.19 8.19 0 0 0-.76 3.48 8.44 8.44 0 0 0 .76 3.52 8.79 8.79 0 0 0 2.08 2.89 9.52 9.52 0 0 0 3.12 1.92 10.24 10.24 0 0 0 3.79.7zM77.44 10.44L60.67 40.31 44 10.44h7.16q1 1.8 2.3 4.08T56 19.17q1.29 2.35 2.54 4.55c.84 1.46 1.54 2.72 2.12 3.78l2.47-4.41 2.76-4.95c.91-1.64 1.75-3.15 2.51-4.55s1.36-2.44 1.79-3.15zM91.85 10.57a16.58 16.58 0 0 1 6.27 1.17 16.11 16.11 0 0 1 5.09 3.18 15.09 15.09 0 0 1 3.45 4.71 13.69 13.69 0 0 1 1.25 5.81v14.94H91.85a16.82 16.82 0 0 1-6.23-1.16A16.53 16.53 0 0 1 80.45 36 15 15 0 0 1 77 31.22a14 14 0 0 1 0-11.59 14.69 14.69 0 0 1 3.47-4.71 17.06 17.06 0 0 1 11.4-4.35m9.68 23.9v-9a8.18 8.18 0 0 0-.75-3.48 9 9 0 0 0-2.1-2.89 10 10 0 0 0-3.08-1.92 10.07 10.07 0 0 0-3.77-.7 10.3 10.3 0 0 0-3.8.7 9.91 9.91 0 0 0-3.12 1.92 9 9 0 0 0-2.07 2.9 8 8 0 0 0-.76 3.48 8.28 8.28 0 0 0 .76 3.52 8.91 8.91 0 0 0 2.07 2.89 9.73 9.73 0 0 0 3.12 1.92 10.3 10.3 0 0 0 3.8.7zM140.89 10.57v5.91h-19.43a3.28 3.28 0 0 0-2.3.86 2.8 2.8 0 0 0-.93 2.13 2.9 2.9 0 0 0 .93 2.16 3.22 3.22 0 0 0 2.3.89h12.9a10.21 10.21 0 0 1 6.85 2.59 8.76 8.76 0 0 1 2.08 2.82 8.47 8.47 0 0 1 0 7 9 9 0 0 1-2.08 2.86 10 10 0 0 1-3.08 1.92 10.07 10.07 0 0 1-3.77.7H115v-5.94h19.35a3.37 3.37 0 0 0 2.37-.86 2.87 2.87 0 0 0 .93-2.19 2.8 2.8 0 0 0-.93-2.13 3.37 3.37 0 0 0-2.37-.86h-12.9a10 10 0 0 1-3.77-.7 9.26 9.26 0 0 1-3-1.92A9.43 9.43 0 0 1 112.6 23a8.47 8.47 0 0 1 0-7 9.13 9.13 0 0 1 2.05-2.82 9.89 9.89 0 0 1 3-1.89 10.23 10.23 0 0 1 3.77-.7zM148.27 10.57h6.31v29.8h-6.31zM187.77 10.57v5.91h-19.43a3.26 3.26 0 0 0-2.29.86 2.8 2.8 0 0 0-.93 2.13 2.9 2.9 0 0 0 .93 2.16 3.19 3.19 0 0 0 2.29.89h12.9a10.21 10.21 0 0 1 6.85 2.59 8.76 8.76 0 0 1 2.08 2.82 8.47 8.47 0 0 1 0 7 9 9 0 0 1-2.08 2.86 9.83 9.83 0 0 1-3.09 1.89 10 10 0 0 1-3.77.7h-19.34v-5.91h19.35a3.37 3.37 0 0 0 2.37-.86 2.87 2.87 0 0 0 .93-2.19 2.8 2.8 0 0 0-.93-2.13 3.37 3.37 0 0 0-2.37-.86h-12.9a10 10 0 0 1-3.76-.7 9.2 9.2 0 0 1-5.09-4.73 8.37 8.37 0 0 1 0-7 8.94 8.94 0 0 1 2-2.82 9.94 9.94 0 0 1 3.05-1.89 10.18 10.18 0 0 1 3.76-.7z"/><path fill="#56626f" d="M115 51.57h.57v1.56H115zm0 3h.57v7.75H115zM118.05 54.59h.57v1.66a2.88 2.88 0 0 1 2.78-1.84c2.73 0 2.76 2.18 2.76 3.13v4.8h-.58v-4.9c0-.8-.09-2.54-2.2-2.54-1.73 0-2.79 1.35-2.79 3.24v4.2h-.57zM126.82 59.76a2.38 2.38 0 0 0 2.57 2.24c1 0 2.46-.3 2.46-1.64s-1.33-1.51-2.66-1.78-2.67-.62-2.67-2.2 1.5-2 2.81-2c1.64 0 2.86.71 2.86 2.47h-.57c0-1.4-1-2-2.29-2-1.06 0-2.23.4-2.23 1.5s1.32 1.43 2.57 1.7c1.54.29 2.75.65 2.75 2.28s-1.68 2.14-3 2.14c-1.77 0-3.09-1-3.14-2.76zM135.19 56.37a2.9 2.9 0 0 1 2.82-2c2.38 0 3.48 1.88 3.48 4.07 0 2.35-1.11 4-3.48 4a2.77 2.77 0 0 1-2.82-1.8v4.39h-.57V54.59h.57zm5.81 2.11c0-1.77-.83-3.58-2.91-3.58s-2.83 1.74-2.83 3.58S135.85 62 138 62c2 0 2.91-1.63 2.91-3.54M143.68 51.57h.57v1.56h-.57zm0 3h.57v7.75h-.57zM147.33 56.31a3 3 0 0 1 3-1.77v.58a2.59 2.59 0 0 0-2.14.75 2.9 2.9 0 0 0-.87 2.23v4.24h-.58v-7.75h.58zM151.76 51.57h.57v1.56h-.57zm0 3h.57v7.75h-.57zM154.83 54.59h.58v1.66a2.88 2.88 0 0 1 2.78-1.84c2.73 0 2.76 2.18 2.76 3.13v4.8h-.58v-4.9c0-.8-.09-2.54-2.2-2.54-1.73 0-2.78 1.35-2.78 3.24v4.2h-.58zM169.74 54.59v7.34a3 3 0 0 1-3.35 3.36c-1.65 0-2.94-.62-3-2.41h.58c.12 1.37 1.2 1.91 2.47 1.91a2.5 2.5 0 0 0 2.76-2.73v-1.77a2.92 2.92 0 0 1-2.81 1.76c-2.27 0-3.34-1.67-3.34-3.83s1.16-3.81 3.34-3.81a2.9 2.9 0 0 1 2.81 1.79v-1.61zm-6.18 3.63c0 1.82.95 3.33 2.77 3.33s2.82-1.58 2.82-3.33-.92-3.32-2.82-3.32-2.77 1.68-2.77 3.32M176.77 59.76a2.37 2.37 0 0 0 2.56 2.24c1 0 2.46-.3 2.46-1.64s-1.33-1.51-2.66-1.78-2.67-.62-2.67-2.2 1.5-2 2.81-2c1.64 0 2.86.71 2.86 2.47h-.57c0-1.4-1-2-2.29-2-1.06 0-2.23.4-2.23 1.5s1.32 1.43 2.57 1.7c1.54.29 2.75.65 2.75 2.28s-1.67 2.14-3 2.14c-1.77 0-3.09-1-3.14-2.76zM187.62 54.41c2.27 0 3.56 1.85 3.56 4.05s-1.29 4.06-3.56 4.06-3.56-1.86-3.56-4.06 1.28-4.05 3.56-4.05m0 7.61c1.94 0 3-1.7 3-3.56s-1-3.56-3-3.56-3 1.71-3 3.56 1 3.56 3 3.56M193.33 51.57h.57v10.76h-.57zM202.54 62.34H202v-1.66a2.87 2.87 0 0 1-2.77 1.84c-2.73 0-2.76-2.19-2.76-3.14v-4.79h.53v4.9c0 .8.09 2.53 2.2 2.53 1.73 0 2.79-1.34 2.79-3.24v-4.19h.57zM207.76 55.09h-1.69v5.41c0 1.25.59 1.37 1.67 1.34v.5c-1.17.07-2.3-.09-2.24-1.84v-5.41h-1.44v-.5h1.44v-2.41h.57v2.41h1.69zM209.63 51.57h.57v1.56h-.57zm0 3h.57v7.75h-.57zM215.9 54.41c2.27 0 3.55 1.85 3.55 4.05s-1.28 4.06-3.55 4.06-3.56-1.86-3.56-4.06 1.28-4.05 3.56-4.05m0 7.61c1.94 0 3-1.7 3-3.56s-1-3.56-3-3.56-3 1.71-3 3.56 1 3.56 3 3.56M221.47 54.59h.58v1.66a2.87 2.87 0 0 1 2.77-1.84c2.73 0 2.76 2.18 2.76 3.13v4.8H227v-4.9c0-.8-.09-2.54-2.2-2.54-1.74 0-2.79 1.35-2.79 3.24v4.2h-.58zM230.25 59.76a2.37 2.37 0 0 0 2.56 2.24c1 0 2.46-.3 2.46-1.64s-1.33-1.51-2.66-1.78S230 58 230 56.4s1.49-2 2.8-2c1.64 0 2.86.71 2.86 2.47H235c0-1.4-1-2-2.29-2-1.06 0-2.23.4-2.23 1.5s1.33 1.43 2.58 1.7c1.53.29 2.74.65 2.74 2.28s-1.67 2.14-3 2.14c-1.76 0-3.09-1-3.14-2.76z"/></svg>
